<svg width="104" height="135" viewBox="0 0 104 135" fill="none" xmlns="http://www.w3.org/2000/svg">
<g clip-path="url(#clip0_101_268)">
<path opacity="0.5" d="M99 0H5C2.23858 0 0 2.23858 0 5V130C0 132.761 2.23858 135 5 135H99C101.761 135 104 132.761 104 130V5C104 2.23858 101.761 0 99 0Z" fill="#002C5B"/>
<path d="M52.8008 48.7195C52.7399 48.7202 52.6752 48.7329 52.6067 48.7576C51.5097 49.1528 50.5247 49.5345 49.6519 49.9028C46.7299 51.1346 44.0232 52.7034 41.5318 54.6093C34.7302 59.8116 29.9555 67.2072 27.3485 75.4151C27.3316 75.4698 27.2992 75.4818 27.2515 75.4509C27.2384 75.4425 27.2287 75.4309 27.2226 75.4163C23.5325 66.9129 21.4275 57.9589 20.9075 48.5542C20.8497 47.5212 20.8358 46.4962 20.8173 45.4423C20.805 44.7297 20.8285 43.8503 20.8878 42.8042C20.8901 42.7672 20.9098 42.7487 20.9468 42.7487L83.7743 42.7476C83.8459 42.7476 83.8833 42.7834 83.8864 42.855C83.9727 44.6639 83.9669 46.4403 83.8691 48.1844C82.9631 64.3091 76.9727 80.02 66.2792 92.2042C62.5907 96.4065 58.4495 100.151 53.8558 103.436C52.7449 104.231 51.6795 104.983 50.6595 105.692C50.6531 105.696 50.6455 105.699 50.6377 105.699C50.6298 105.7 50.622 105.698 50.6153 105.694C50.6086 105.69 50.6031 105.684 50.5997 105.676C50.5963 105.669 50.595 105.661 50.596 105.654C50.8317 103.852 51.094 102.113 51.3829 100.438C53.5276 88.0049 58.032 75.7017 66.0492 65.9026C67.6231 63.979 69.2929 62.2441 71.0586 60.698C71.9268 59.9384 72.7927 59.2535 73.6563 58.6434C73.8411 58.5124 73.8261 58.4835 73.6112 58.5567C68.9347 60.1548 64.6672 62.8912 61.0387 66.2955C56.1519 70.8796 52.1872 76.625 49.0834 82.6639C46.572 87.5504 44.5424 92.6294 42.9948 97.9011C42.9942 97.9041 42.9927 97.9068 42.9905 97.9089C42.9883 97.9111 42.9855 97.9125 42.9825 97.913C42.9795 97.9135 42.9764 97.913 42.9736 97.9117C42.9709 97.9104 42.9685 97.9083 42.967 97.9057C42.9508 97.8818 42.9427 97.8564 42.9427 97.8294C42.9508 97.2228 42.9381 96.6288 42.9659 96.0129C43.4269 85.7053 46.3447 75.2441 51.5828 66.3613C55.4755 59.7593 60.4725 54.2546 66.5739 49.8473C67.476 49.1956 68.3646 48.5854 69.2397 48.0169C69.4331 47.8913 69.4185 47.8582 69.1958 47.9175C64.5944 49.1355 60.3254 51.2382 56.3888 54.2257C49.5976 59.3806 44.4253 66.522 40.5519 74.0654C38.1129 78.8148 36.1277 83.7124 34.5962 88.7583C34.5877 88.786 34.5815 88.8149 34.5777 88.845C34.5723 88.8912 34.5488 88.9247 34.5072 88.9455C34.5028 88.9479 34.4978 88.9491 34.4928 88.9491C34.4878 88.949 34.4829 88.9476 34.4786 88.945C34.4742 88.9424 34.4707 88.9388 34.4682 88.9344C34.4657 88.93 34.4644 88.9251 34.4644 88.9201C34.5523 76.5799 37.9427 64.0872 46.0766 54.7214C48.0642 52.4334 50.3106 50.3604 52.81 48.7518C52.8432 48.7303 52.8401 48.7195 52.8008 48.7195Z" fill="white"/>
<path d="M34.8689 29.6678L83.9534 29.6667C83.9755 29.6667 83.9966 29.6754 84.0122 29.691C84.0278 29.7066 84.0366 29.7278 84.0366 29.7499L84.0355 40.4711C84.0355 40.482 84.0333 40.4929 84.0291 40.5029C84.0249 40.513 84.0188 40.5222 84.0111 40.5299C84.0034 40.5377 83.9942 40.5438 83.9841 40.548C83.974 40.5522 83.9632 40.5543 83.9523 40.5543L20.8878 40.5555C20.8658 40.5555 20.8446 40.5467 20.829 40.5311C20.8134 40.5155 20.8046 40.4943 20.8046 40.4723L20.8023 29.7522C20.8023 29.7301 20.8111 29.7089 20.8267 29.6933C20.8423 29.6777 20.8634 29.669 20.8855 29.669L31.6449 29.6667C31.6565 29.6668 31.6679 29.6693 31.6784 29.6741C31.689 29.6788 31.6984 29.6858 31.7061 29.6944L33.1852 31.3457C33.193 31.3544 33.2024 31.3614 33.213 31.3663C33.2236 31.3711 33.2351 31.3737 33.2468 31.3738C33.2585 31.3739 33.27 31.3716 33.2807 31.3669C33.2914 31.3623 33.301 31.3554 33.3089 31.3468L34.8076 29.6956C34.8154 29.6869 34.8248 29.68 34.8353 29.6752C34.8459 29.6704 34.8573 29.6679 34.8689 29.6678ZM69.116 35.1714C69.1194 34.7735 69.0418 34.3788 68.8874 34.0098C68.733 33.6409 68.5049 33.3049 68.2161 33.021C67.9274 32.7371 67.5836 32.5109 67.2044 32.3553C66.8253 32.1998 66.4182 32.1178 66.0063 32.1142C65.5945 32.1107 65.186 32.1855 64.8042 32.3344C64.4224 32.4833 64.0747 32.7035 63.7811 32.9823C63.4874 33.2611 63.2535 33.5931 63.0927 33.9593C62.9319 34.3255 62.8473 34.7188 62.8438 35.1166C62.8404 35.5145 62.918 35.9092 63.0724 36.2782C63.2268 36.6471 63.4549 36.9831 63.7437 37.267C64.0324 37.5509 64.3762 37.7771 64.7554 37.9327C65.1345 38.0882 65.5416 38.1702 65.9535 38.1737C66.3653 38.1773 66.7738 38.1025 67.1556 37.9536C67.5374 37.8047 67.8851 37.5845 68.1787 37.3057C68.4724 37.0269 68.7063 36.6949 68.8671 36.3287C69.0279 35.9625 69.1125 35.5692 69.116 35.1714ZM46.458 36.8473C45.9102 37.0287 45.2816 36.7618 44.8714 36.377C44.8653 36.3713 44.858 36.367 44.8501 36.3645C44.8421 36.362 44.8338 36.3613 44.8256 36.3626C44.8175 36.3638 44.8097 36.3669 44.803 36.3716C44.7963 36.3763 44.7909 36.3825 44.787 36.3897L44.2474 37.3881C44.2344 37.4119 44.2308 37.4396 44.2372 37.4661C44.2436 37.4925 44.2596 37.5158 44.282 37.5314C45.6028 38.4477 48.0503 38.4593 48.3403 36.407C48.4559 35.5947 48.085 34.9441 47.3223 34.6668C46.934 34.5258 46.4418 34.4414 46.102 34.2022C45.8883 34.052 45.8802 33.7331 46.035 33.5482C46.2858 33.25 46.9525 33.3783 47.2403 33.5135C47.3269 33.554 47.4009 33.6279 47.4864 33.6741C47.5234 33.6942 47.5515 33.6857 47.5708 33.6487L48.0665 32.6908C48.072 32.6801 48.0754 32.6684 48.0763 32.6564C48.0773 32.6445 48.0758 32.6324 48.0721 32.621C48.0683 32.6096 48.0623 32.599 48.0544 32.59C48.0465 32.5809 48.0368 32.5735 48.026 32.5683C47.5792 32.3533 47.1112 32.2224 46.622 32.1754C45.3347 32.0506 44.3676 32.8595 44.4253 34.2068C44.4727 35.2919 45.3532 35.4803 46.191 35.7195C46.466 35.798 46.8416 35.9517 46.8451 36.2926C46.8474 36.5761 46.7183 36.761 46.458 36.8473ZM72.54 36.6243C70.8679 35.9587 71.5162 33.2246 73.4633 33.5909C73.4905 33.5961 73.5185 33.5934 73.5442 33.5832C73.5698 33.5729 73.5918 33.5556 73.6077 33.5332L74.3184 32.5336C74.3273 32.521 74.3332 32.5065 74.3355 32.4913C74.3379 32.476 74.3367 32.4605 74.332 32.4458C74.3272 32.4311 74.3192 32.4177 74.3084 32.4067C74.2976 32.3956 74.2844 32.3873 74.2699 32.3822C73.0226 31.9547 71.9406 32.1615 71.0239 33.0028C70.4473 33.532 70.0867 34.3444 70.0983 35.1359C70.1206 36.5118 70.7947 37.4493 72.1205 37.9485C72.7176 38.1727 73.3458 38.1835 74.0052 37.9809C74.0277 37.9738 74.0474 37.9597 74.0613 37.9408C74.0752 37.9219 74.0827 37.8991 74.0827 37.8757L74.0873 36.5203C74.0872 36.5123 74.0851 36.5044 74.0812 36.4975C74.0772 36.4906 74.0715 36.4848 74.0646 36.4807C74.0578 36.4767 74.05 36.4744 74.042 36.4743C74.034 36.4741 74.0261 36.476 74.0191 36.4798C73.5068 36.7641 73.0138 36.8122 72.54 36.6243ZM29.4285 32.3117C29.416 32.3117 29.4039 32.3167 29.395 32.3256C29.3861 32.3345 29.3812 32.3465 29.3812 32.3591V35.7056C29.381 35.7153 29.3778 35.7248 29.3721 35.7327C29.3664 35.7406 29.3584 35.7465 29.3491 35.7497C29.3399 35.7529 29.3299 35.7531 29.3206 35.7504C29.3112 35.7476 29.3029 35.7421 29.2968 35.7345L26.6587 32.3314C26.6543 32.3257 26.6487 32.3211 26.6423 32.3179C26.6359 32.3147 26.6288 32.313 26.6217 32.3129L25.2373 32.3117C25.2248 32.3117 25.2127 32.3167 25.2038 32.3256C25.1949 32.3345 25.19 32.3465 25.19 32.3591L25.1876 37.937C25.1876 37.9495 25.1926 37.9616 25.2015 37.9705C25.2104 37.9794 25.2225 37.9844 25.235 37.9844H26.572C26.5846 37.9844 26.5966 37.9794 26.6055 37.9705C26.6144 37.9616 26.6194 37.9495 26.6194 37.937L26.6171 34.52C26.6169 34.51 26.6199 34.5001 26.6257 34.4919C26.6315 34.4837 26.6398 34.4775 26.6493 34.4743C26.6588 34.4711 26.6691 34.471 26.6787 34.474C26.6882 34.477 26.6966 34.483 26.7026 34.4911L29.3904 37.9659C29.3948 37.9715 29.4004 37.9762 29.4068 37.9794C29.4132 37.9826 29.4202 37.9843 29.4274 37.9844H30.7713C30.7839 37.9844 30.7959 37.9794 30.8048 37.9705C30.8137 37.9616 30.8187 37.9495 30.8187 37.937V32.3568C30.8187 32.3442 30.8137 32.3322 30.8048 32.3233C30.7959 32.3144 30.7839 32.3094 30.7713 32.3094L29.4285 32.3117ZM33.9583 32.3834C33.9583 32.3647 33.9509 32.3468 33.9377 32.3335C33.9244 32.3203 33.9065 32.3129 33.8878 32.3129H32.582C32.5633 32.3129 32.5454 32.3203 32.5322 32.3335C32.519 32.3468 32.5116 32.3647 32.5116 32.3834V37.9139C32.5116 37.9326 32.519 37.9505 32.5322 37.9637C32.5454 37.9769 32.5633 37.9844 32.582 37.9844H33.8878C33.9065 37.9844 33.9244 37.9769 33.9377 37.9637C33.9509 37.9505 33.9583 37.9326 33.9583 37.9139V32.3834ZM37.1488 34.4992C37.1332 34.4992 37.1182 34.493 37.1071 34.4819C37.0961 34.4709 37.0899 34.4559 37.0899 34.4403L37.0933 33.5805C37.0933 33.5649 37.0995 33.5499 37.1106 33.5389C37.1216 33.5278 37.1366 33.5216 37.1523 33.5216L38.7677 33.5297C38.7834 33.5297 38.7983 33.5235 38.8094 33.5124C38.8205 33.5014 38.8267 33.4864 38.8267 33.4708L38.8324 32.3741C38.8324 32.3585 38.8262 32.3435 38.8152 32.3325C38.8041 32.3214 38.7891 32.3152 38.7735 32.3152L35.7113 32.3129C35.6957 32.3129 35.6807 32.3191 35.6696 32.3301C35.6586 32.3412 35.6524 32.3562 35.6524 32.3718L35.6489 37.9266C35.6489 37.9422 35.6551 37.9572 35.6661 37.9682C35.6772 37.9793 35.6922 37.9855 35.7078 37.9855H38.7735C38.7891 37.9855 38.8041 37.9793 38.8152 37.9682C38.8262 37.9572 38.8324 37.9422 38.8324 37.9266L38.8313 36.8276C38.8313 36.812 38.8251 36.797 38.814 36.786C38.803 36.7749 38.788 36.7687 38.7724 36.7687L37.1465 36.771C37.1309 36.771 37.1159 36.7648 37.1048 36.7538C37.0938 36.7427 37.0876 36.7277 37.0876 36.7121L37.0899 35.8131C37.0899 35.7974 37.0961 35.7824 37.1071 35.7714C37.1182 35.7603 37.1332 35.7541 37.1488 35.7541L38.6961 35.7518C38.7117 35.7518 38.7267 35.7456 38.7378 35.7346C38.7488 35.7235 38.755 35.7085 38.755 35.6929L38.7469 34.5593C38.7469 34.5437 38.7407 34.5287 38.7297 34.5176C38.7186 34.5066 38.7036 34.5004 38.688 34.5004L37.1488 34.4992ZM41.9813 36.771C41.966 36.771 41.9513 36.7649 41.9405 36.7541C41.9296 36.7433 41.9235 36.7286 41.9235 36.7132V32.3695C41.9235 32.3542 41.9175 32.3395 41.9066 32.3287C41.8958 32.3178 41.8811 32.3117 41.8658 32.3117L40.5554 32.3106C40.54 32.3106 40.5254 32.3167 40.5145 32.3275C40.5037 32.3383 40.4976 32.353 40.4976 32.3684L40.4953 37.9289C40.4953 37.9442 40.5014 37.9589 40.5122 37.9697C40.523 37.9806 40.5377 37.9867 40.5531 37.9867L43.2756 37.9832C43.2909 37.9832 43.3056 37.9771 43.3164 37.9663C43.3272 37.9554 43.3333 37.9407 43.3333 37.9254L43.3299 36.83C43.3299 36.8146 43.3238 36.7999 43.3129 36.7891C43.3021 36.7783 43.2874 36.7722 43.2721 36.7722L41.9813 36.771ZM55.3996 34.8863C55.8765 34.5481 56.0433 34.0374 55.9 33.354C55.7347 32.5706 55.0703 32.3083 54.3539 32.3129C53.6544 32.3167 52.9514 32.3156 52.245 32.3094C52.2397 32.3093 52.2345 32.3102 52.2296 32.3122C52.2247 32.3141 52.2202 32.3171 52.2165 32.3208C52.2127 32.3246 52.2097 32.3291 52.2076 32.3341C52.2056 32.3391 52.2045 32.3445 52.2045 32.3499L52.2034 37.8757C52.2034 37.904 52.2145 37.9312 52.2344 37.9513C52.2543 37.9714 52.2814 37.9829 52.3097 37.9832C52.9791 37.9886 53.6301 37.9882 54.2626 37.982C55.3812 37.9705 56.5332 37.6666 56.4847 36.2753C56.4616 35.6166 56.0941 35.1036 55.4216 34.9857C55.4109 34.9841 55.4009 34.9793 55.393 34.9719C55.3851 34.9644 55.3796 34.9548 55.3773 34.9441C55.3749 34.9334 55.3758 34.9222 55.3798 34.9119C55.3837 34.9016 55.3907 34.8927 55.3996 34.8863ZM59.1044 35.8443C59.1198 35.7803 59.1448 35.7761 59.1795 35.8316L60.5014 37.9439C60.5095 37.9566 60.5207 37.9671 60.5338 37.9744C60.5469 37.9816 60.5616 37.9855 60.5765 37.9855L62.1943 37.982C62.205 37.9819 62.2155 37.9789 62.2246 37.9732C62.2338 37.9676 62.2411 37.9596 62.2459 37.9501C62.2507 37.9406 62.2528 37.9301 62.2518 37.9196C62.2509 37.9091 62.2469 37.8991 62.2405 37.8908L60.5973 35.7426C60.5889 35.7318 60.5833 35.7191 60.5812 35.7056C60.579 35.6921 60.5802 35.6782 60.5848 35.6652C60.5894 35.6523 60.5972 35.6406 60.6075 35.6313C60.6177 35.622 60.6301 35.6154 60.6435 35.612C61.8026 35.3347 62.1677 33.7204 61.3739 32.8745C60.959 32.4319 60.3708 32.3048 59.7203 32.3129C59.0346 32.3214 58.359 32.3202 57.6934 32.3094C57.6827 32.3094 57.6724 32.3137 57.6648 32.3213C57.6572 32.3289 57.653 32.3391 57.653 32.3499L57.6449 37.9023C57.6449 37.9238 57.6534 37.9443 57.6686 37.9595C57.6837 37.9747 57.7043 37.9832 57.7258 37.9832L59.0177 37.9867C59.0379 37.9867 59.0573 37.9785 59.0716 37.964C59.0859 37.9495 59.094 37.9298 59.094 37.9092C59.094 37.2483 59.0909 36.5888 59.0847 35.9309C59.0847 35.9171 59.0866 35.9032 59.0905 35.8893C59.0959 35.8747 59.1005 35.8597 59.1044 35.8443ZM76.8814 37.9867C76.8921 37.9867 76.9024 37.9824 76.91 37.9748C76.9176 37.9672 76.9219 37.9569 76.9219 37.9462L76.9276 35.5646C76.9276 35.5561 76.9303 35.5479 76.9353 35.541C76.9402 35.5341 76.9472 35.5289 76.9553 35.5263C76.9633 35.5236 76.972 35.5235 76.9801 35.526C76.9882 35.5285 76.9953 35.5336 77.0004 35.5404L78.8609 37.9693C78.8647 37.9744 78.8695 37.9784 78.8752 37.9812C78.8808 37.984 78.887 37.9855 78.8932 37.9855L80.6381 37.9786C80.6457 37.9785 80.6532 37.9763 80.6596 37.9722C80.666 37.9681 80.6712 37.9623 80.6744 37.9554C80.6777 37.9486 80.6789 37.9409 80.678 37.9333C80.6771 37.9258 80.6741 37.9186 80.6693 37.9127L78.2912 35.0134C78.2855 35.0061 78.2826 34.997 78.2828 34.9878C78.283 34.9785 78.2864 34.9696 78.2924 34.9626L80.4544 32.373C80.4592 32.367 80.4623 32.3597 80.4631 32.3521C80.464 32.3444 80.4626 32.3366 80.4592 32.3297C80.4558 32.3228 80.4505 32.317 80.4439 32.313C80.4373 32.309 80.4298 32.3069 80.422 32.3071L78.7499 32.321C78.7439 32.3212 78.7379 32.3227 78.7325 32.3255C78.7271 32.3283 78.7224 32.3323 78.7187 32.3372L77.0097 34.6067C77.0046 34.6135 76.9975 34.6185 76.9894 34.621C76.9813 34.6235 76.9726 34.6235 76.9645 34.6208C76.9565 34.6181 76.9495 34.6129 76.9445 34.606C76.9396 34.5992 76.9369 34.5909 76.9369 34.5824L76.9172 32.3441C76.9172 32.3334 76.913 32.3231 76.9054 32.3155C76.8978 32.3079 76.8875 32.3036 76.8768 32.3036L75.526 32.3129C75.5152 32.3129 75.5049 32.3171 75.4974 32.3247C75.4898 32.3323 75.4855 32.3426 75.4855 32.3533L75.4843 37.9393C75.4843 37.95 75.4886 37.9603 75.4962 37.9679C75.5038 37.9755 75.5141 37.9797 75.5248 37.9797L76.8814 37.9867Z" fill="white"/>
<path d="M53.6478 35.6455C53.6478 35.6302 53.6539 35.6155 53.6647 35.6047C53.6756 35.5938 53.6903 35.5877 53.7056 35.5877L54.147 35.5854C54.2624 35.5848 54.3767 35.5988 54.4835 35.6266C54.5902 35.6544 54.6873 35.6955 54.7692 35.7476C54.8511 35.7996 54.9162 35.8616 54.9607 35.9299C55.0052 35.9983 55.0283 36.0716 55.0287 36.1459V36.3238C55.0295 36.4736 54.9378 36.6178 54.7738 36.7246C54.6097 36.8315 54.3868 36.8922 54.154 36.8935L53.7125 36.8958C53.6972 36.8958 53.6825 36.8897 53.6717 36.8789C53.6608 36.8681 53.6548 36.8534 53.6548 36.838L53.6478 35.6455Z" fill="white"/>
<path d="M53.6467 33.4812C53.6465 33.471 53.6484 33.461 53.6521 33.4516C53.6559 33.4422 53.6615 33.4337 53.6686 33.4265C53.6757 33.4193 53.6841 33.4135 53.6935 33.4096C53.7028 33.4057 53.7128 33.4037 53.7229 33.4037L54.0014 33.4014C54.1676 33.4001 54.3274 33.4509 54.4457 33.5425C54.564 33.6342 54.6311 33.7592 54.6323 33.8902L54.6347 34.0543C54.6353 34.1193 54.6196 34.1839 54.5886 34.2442C54.5575 34.3046 54.5117 34.3596 54.4538 34.4061C54.3958 34.4525 54.3268 34.4896 54.2508 34.5151C54.1748 34.5406 54.0932 34.554 54.0107 34.5547L53.7322 34.557C53.7121 34.557 53.6929 34.5491 53.6786 34.535C53.6644 34.521 53.6562 34.5019 53.6559 34.4819L53.6467 33.4812Z" fill="white"/>
<path d="M59.0859 33.5124C59.0857 33.4991 59.0882 33.4859 59.0932 33.4735C59.0982 33.4612 59.1056 33.45 59.1149 33.4405C59.1243 33.4311 59.1354 33.4236 59.1477 33.4184C59.1599 33.4133 59.1731 33.4107 59.1864 33.4107L59.5123 33.4084C59.717 33.4071 59.9138 33.4731 60.0594 33.5919C60.205 33.7106 60.2875 33.8723 60.2888 34.0416L60.29 34.2103C60.2906 34.2943 60.2712 34.3775 60.233 34.4554C60.1947 34.5332 60.1383 34.6041 60.0669 34.664C59.9956 34.7238 59.9107 34.7715 59.8171 34.8043C59.7235 34.8371 59.6231 34.8544 59.5215 34.8551L59.1956 34.8574C59.1692 34.8574 59.1438 34.847 59.125 34.8284C59.1061 34.8098 59.0954 34.7845 59.0951 34.758L59.0859 33.5124Z" fill="white"/>
<path d="M65.9788 36.756C66.8748 36.756 67.6012 36.0296 67.6012 35.1336C67.6012 34.2376 66.8748 33.5112 65.9788 33.5112C65.0827 33.5112 64.3564 34.2376 64.3564 35.1336C64.3564 36.0296 65.0827 36.756 65.9788 36.756Z" fill="white"/>
<circle cx="65.98" cy="35.13" r="1.62" fill="white"/>
</g>
<defs>
<clipPath id="clip0_101_268">
<rect width="104" height="135" fill="white"/>
</clipPath>
</defs>
</svg>
