<svg width="104" height="135" viewBox="0 0 104 135" fill="none" xmlns="http://www.w3.org/2000/svg">
<rect width="104" height="135" rx="5" fill="url(#paint0_radial_48_401)" opacity="0.5"/>
<path d="M26.9688 28H56.0312C60.4375 28 64 31.5625 64 35.9688V63.9062C64 68.3125 60.4375 71.875 56.0312 71.875H26.9688C22.5625 71.875 19 68.3125 19 63.9062V35.9688C19 31.5625 22.5625 28 26.9688 28Z" fill="#001E36"/>
<path d="M29.125 58.7688V39.475C29.125 39.3438 29.1813 39.2687 29.3125 39.2687C29.6313 39.2687 29.9312 39.2688 30.3625 39.25C30.8125 39.2312 31.2812 39.2312 31.7875 39.2125C32.2937 39.1937 32.8375 39.1937 33.4188 39.175C34 39.1562 34.5625 39.1562 35.125 39.1562C36.6625 39.1562 37.9375 39.3437 38.9875 39.7375C39.925 40.0562 40.7875 40.5813 41.5 41.275C42.1 41.875 42.5688 42.6062 42.8688 43.4125C43.15 44.2 43.3 45.0062 43.3 45.85C43.3 47.4625 42.925 48.7938 42.175 49.8438C41.425 50.8937 40.375 51.6812 39.1562 52.1312C37.8812 52.6 36.475 52.7688 34.9375 52.7688C34.4875 52.7688 34.1875 52.7688 34 52.75C33.8125 52.7312 33.55 52.7312 33.1937 52.7312V58.75C33.2125 58.8812 33.1187 58.9937 32.9875 59.0125C32.9687 59.0125 32.95 59.0125 32.9125 59.0125H29.35C29.2 59.0125 29.125 58.9375 29.125 58.7688ZM33.2125 42.8875V49.1875C33.475 49.2063 33.7187 49.225 33.9437 49.225H34.9375C35.6688 49.225 36.4 49.1125 37.0938 48.8875C37.6938 48.7188 38.2187 48.3625 38.6312 47.8937C39.025 47.425 39.2125 46.7875 39.2125 45.9625C39.2313 45.3813 39.0813 44.8 38.7812 44.2938C38.4625 43.8063 38.0125 43.4312 37.4688 43.225C36.775 42.9437 36.025 42.8312 35.2562 42.85C34.7687 42.85 34.3375 42.85 33.9813 42.8688C33.6063 42.85 33.3438 42.8688 33.2125 42.8875Z" fill="#31A8FF"/>
<path d="M55 48.0437C54.4375 47.7437 53.8375 47.5375 53.2 47.4062C52.5063 47.2562 51.8125 47.1625 51.1 47.1625C50.725 47.1437 50.3313 47.2 49.975 47.2937C49.7313 47.35 49.525 47.4812 49.3938 47.6687C49.3 47.8187 49.2438 48.0062 49.2438 48.175C49.2438 48.3437 49.3188 48.5125 49.4313 48.6625C49.6 48.8687 49.825 49.0375 50.0688 49.1687C50.5 49.3937 50.95 49.6 51.4 49.7875C52.4125 50.125 53.3875 50.5937 54.2875 51.1562C54.9063 51.55 55.4125 52.075 55.7688 52.7125C56.0688 53.3125 56.2188 53.9687 56.2 54.6437C56.2188 55.525 55.9563 56.4062 55.4688 57.1375C54.9438 57.8875 54.2125 58.4687 53.3688 58.8062C52.45 59.2 51.325 59.4062 49.975 59.4062C49.1125 59.4062 48.2688 59.3312 47.425 59.1625C46.7688 59.05 46.1125 58.8437 45.5125 58.5625C45.3813 58.4875 45.2875 58.3562 45.3063 58.2062V54.9437C45.3063 54.8875 45.325 54.8125 45.3813 54.775C45.4375 54.7375 45.4938 54.7562 45.55 54.7937C46.2813 55.225 47.05 55.525 47.875 55.7125C48.5875 55.9 49.3375 55.9937 50.0875 55.9937C50.8 55.9937 51.3063 55.9 51.6438 55.7312C51.9438 55.6 52.15 55.2812 52.15 54.9437C52.15 54.6812 52 54.4375 51.7 54.1937C51.4 53.95 50.7813 53.6687 49.8625 53.3125C48.9063 52.975 48.025 52.525 47.2 51.9625C46.6188 51.55 46.1313 51.0062 45.775 50.3687C45.475 49.7687 45.325 49.1125 45.3438 48.4562C45.3438 47.65 45.5688 46.8812 45.9813 46.1875C46.45 45.4375 47.1438 44.8375 47.95 44.4625C48.8313 44.0125 49.9375 43.8062 51.2688 43.8062C52.0375 43.8062 52.825 43.8625 53.5938 43.975C54.1563 44.05 54.7 44.2 55.2063 44.4062C55.2813 44.425 55.3563 44.5 55.3938 44.575C55.4125 44.65 55.4313 44.725 55.4313 44.8V47.8562C55.4313 47.9312 55.3938 48.0062 55.3375 48.0437C55.1688 48.0812 55.075 48.0812 55 48.0437Z" fill="#31A8FF"/>
<path d="M46.9688 62H76.0312C80.4375 62 84 65.5625 84 69.9688V97.9062C84 102.312 80.4375 105.875 76.0312 105.875H46.9688C42.5625 105.875 39 102.312 39 97.9062V69.9688C39 65.5625 42.5625 62 46.9688 62Z" fill="#00005B"/>
<path d="M49.6875 92.75V73.4375C49.6875 73.3062 49.7438 73.2312 49.875 73.2312C50.1938 73.2312 50.4937 73.2312 50.925 73.2125C51.375 73.1937 51.8437 73.1937 52.35 73.175C52.8562 73.1562 53.4 73.1562 53.9813 73.1375C54.5625 73.1187 55.125 73.1187 55.6875 73.1187C57.225 73.1187 58.5 73.3062 59.55 73.7C60.4875 74.0187 61.35 74.5437 62.0625 75.2375C62.6625 75.8375 63.1313 76.5687 63.4313 77.375C63.7125 78.1625 63.8625 78.9687 63.8625 79.8125C63.8625 81.425 63.4875 82.7562 62.7375 83.8062C61.9875 84.8562 60.9375 85.6437 59.7188 86.0937C58.4437 86.5625 57.0375 86.7312 55.5 86.7312C55.05 86.7312 54.75 86.7312 54.5625 86.7125C54.375 86.6937 54.1125 86.6937 53.7562 86.6937V92.7125C53.775 92.8437 53.6812 92.9562 53.55 92.975H53.475H49.9125C49.7625 92.975 49.6875 92.9 49.6875 92.7312V92.75ZM53.775 76.8687V83.1687C54.0375 83.1875 54.2812 83.2062 54.5062 83.2062H55.5C56.2313 83.2062 56.9625 83.0937 57.6562 82.8687C58.2563 82.7 58.7812 82.3437 59.1937 81.875C59.5875 81.4062 59.775 80.7687 59.775 79.9437C59.7938 79.3625 59.6438 78.7812 59.3438 78.275C59.025 77.7875 58.575 77.4125 58.0312 77.2062C57.3375 76.925 56.5875 76.8125 55.8187 76.8312C55.3312 76.8312 54.9 76.8312 54.5438 76.85C54.1688 76.8312 53.9063 76.85 53.775 76.8687Z" fill="#9999FF"/>
<path d="M66.5625 77.975H69.8437C70.0312 77.975 70.1812 78.1062 70.2375 78.275C70.2937 78.425 70.3312 78.575 70.35 78.7437C70.3875 78.9312 70.425 79.1375 70.4437 79.325C70.4625 79.5312 70.4812 79.7562 70.4812 80C71.0437 79.3437 71.7187 78.8 72.4875 78.3875C73.35 77.9 74.3437 77.6562 75.3375 77.6562C75.4687 77.6375 75.5812 77.7312 75.6 77.8625V77.9375V81.5937C75.6 81.7437 75.5062 81.8 75.3 81.8C74.625 81.7812 73.9312 81.8375 73.275 81.9875C72.7312 82.1 72.2062 82.2687 71.7 82.4937C71.3437 82.6625 71.0062 82.8875 70.7437 83.1875V92.75C70.7437 92.9375 70.6687 93.0125 70.5 93.0125H66.8062C66.6562 93.0312 66.525 92.9375 66.5062 92.7875V92.7125V82.325C66.5062 81.875 66.5062 81.4062 66.4875 80.9187C66.4687 80.4312 66.4687 79.9437 66.45 79.4562C66.45 79.025 66.4125 78.6125 66.375 78.1812C66.3562 78.0875 66.4125 77.9937 66.5062 77.975C66.5062 77.9562 66.5437 77.9562 66.5625 77.975Z" fill="#9999FF"/>
<defs>
<radialGradient id="paint0_radial_48_401" cx="0" cy="0" r="1" gradientUnits="userSpaceOnUse" gradientTransform="translate(52 67.5) rotate(90) scale(67.5 52)">
<stop stop-color="#3838D1"/>
<stop offset="1" stop-color="#1111AC"/>
</radialGradient>
</defs>
</svg>
