<svg width="104" height="135" viewBox="0 0 104 135" fill="none" xmlns="http://www.w3.org/2000/svg">
<rect width="104" height="135" rx="5" fill="#BD2A30" opacity="0.8"/>
<path d="M28.7159 28.4694V28.5035H28.6818H28.6477H28.6135L28.5794 28.5376H28.5453L28.5112 28.5717H28.4771V28.6058H28.4429L28.4088 28.64C28.3129 28.7355 28.2723 28.8706 28.2723 29.0835V55.97C28.2723 56.1788 28.3129 56.3221 28.4088 56.4136C28.4995 56.5037 28.6445 56.55 28.8524 56.55H35.8811C38.616 56.55 40.2989 55.9509 41.3061 54.6393C42.7992 52.8528 42.8415 49.9485 42.8415 45.5293V39.4901C42.8416 35.0654 42.7992 32.1993 41.3061 30.4142C40.2989 29.1026 38.616 28.4694 35.8811 28.4694H28.8524H28.8183H28.7841H28.75H28.7159ZM32.742 31.7449H35.1987C36.2968 31.7449 36.9441 31.9223 37.4506 32.5296C38.2343 33.4686 38.3036 35.3671 38.3036 39.183V45.8364C38.3036 49.6482 38.2343 51.5508 37.4506 52.4898C36.9441 53.0971 36.2968 53.2745 35.1987 53.2745H32.742V31.7449Z" fill="white"/>
<path d="M54.2396 55.9703L54.2382 55.9908V56.0085L54.2368 56.0276L54.2355 56.0454L54.2341 56.0631L54.2327 56.0795L54.23 56.0972L54.2273 56.1136L54.2245 56.1286L54.2218 56.145L54.2177 56.16L54.2136 56.175L54.2095 56.19L54.2054 56.2037L54.2 56.2173L54.1945 56.231L54.189 56.2432L54.1836 56.2569L54.1781 56.2692L54.1713 56.2815L54.1659 56.2924L54.159 56.3047L54.1522 56.3156L54.144 56.3265L54.1372 56.336L54.129 56.347L54.1222 56.3565L54.114 56.3661L54.0962 56.3852L54.0785 56.4029C53.9884 56.493 53.8601 56.5572 53.6472 56.5572H50.0483C49.8409 56.5572 49.7126 56.493 49.6225 56.4029C49.5256 56.3115 49.4628 56.1791 49.4628 55.9703V32.0278H45.2401C45.0272 32.0278 44.899 31.965 44.8034 31.8681C44.7065 31.7781 44.6478 31.6498 44.6478 31.4369V29.069C44.6478 28.8561 44.7065 28.7278 44.8034 28.6323C44.899 28.5422 45.0272 28.478 45.2401 28.478H58.4663C58.6751 28.478 58.802 28.5422 58.8989 28.6323C58.989 28.7278 59.0532 28.8561 59.0532 29.069V31.4369C59.0532 31.6498 58.989 31.7781 58.8989 31.8681C58.802 31.965 58.6751 32.0278 58.4663 32.0278H54.2396V55.9703Z" fill="white"/>
<path d="M75.4729 29.069V29.0499V29.0308L75.4715 29.0117L75.4702 28.9939L75.4688 28.9762L75.4661 28.9584L75.4647 28.9407L75.462 28.9243L75.4592 28.9093L75.4551 28.8929L75.4524 28.8779L75.4483 28.8629L75.4442 28.8479L75.4388 28.8342L75.4347 28.8206L75.4292 28.8069L75.4237 28.7933L75.4183 28.781L75.4128 28.7687L75.406 28.7564L75.3992 28.7455L75.3924 28.7332L75.3855 28.7223L75.3787 28.7114L75.3719 28.7005L75.3637 28.6896L75.3473 28.6705L75.3309 28.6513L75.3132 28.6323C75.2231 28.5422 75.0948 28.478 74.8819 28.478H71.5969C71.384 28.478 71.2557 28.5422 71.1656 28.6323C71.0701 28.7278 71.0059 28.8561 71.0059 29.069V48.928C71.0059 51.0025 70.8503 52.2335 70.1789 52.9746C69.7203 53.4755 69.0706 53.7211 68.1644 53.7211C67.3483 53.7211 66.7246 53.4919 66.2497 52.9691C65.6109 52.2663 65.4131 51.0762 65.4131 48.928V29.069C65.4131 28.8561 65.3543 28.7278 65.2588 28.6323C65.1674 28.5422 65.0405 28.478 64.8262 28.478H61.537C61.3241 28.478 61.2013 28.5422 61.1057 28.6323C61.0102 28.7278 60.9515 28.8561 60.9515 29.069V48.9335C60.9515 51.8282 61.3405 53.6406 62.491 54.9044C63.6852 56.216 65.4881 56.9147 68.2231 56.9147C70.995 56.9147 72.7706 56.1736 73.8679 54.8989C75.1535 53.4059 75.4729 51.6207 75.4729 48.9335V29.069Z" fill="white"/>
<path d="M79.1025 70.6104L67.8211 76.5336C53.2084 70.8506 51.9773 70.8506 37.3694 76.5336L26.0887 70.6104L37.3694 64.6873C51.9773 70.3702 53.2084 70.3702 67.8211 64.6873L79.1025 70.6104Z" fill="white"/>
<path d="M79.1025 85.2491L67.8211 91.1723C53.2084 85.4893 51.9773 85.4893 37.3694 91.1723L26.0887 85.2491L37.3694 79.3273C51.9773 85.0103 53.2084 85.0103 67.8211 79.3273L79.1025 85.2491Z" fill="white"/>
<path d="M79.1025 99.8841L67.8211 105.807C53.2084 100.124 51.9773 100.124 37.3694 105.807L26.0887 99.8841L37.3694 93.9663C51.9773 99.6494 53.2084 99.6494 67.8211 93.9663L79.1025 99.8841Z" fill="white"/>
</svg>
